<svg width="431" height="368" viewBox="0 0 431 368" fill="none" xmlns="http://www.w3.org/2000/svg">
<path fill-rule="evenodd" clip-rule="evenodd" d="M134.361 167.143C135.929 184.738 137.497 202.334 139.065 219.93C147.604 214.516 156.143 209.101 164.681 203.688V243.773V254.309C164.681 255.242 164.183 258.444 164.681 259.252C165.103 259.936 168.232 259.956 168.972 260.071C173.799 260.822 178.639 261.491 183.485 262.085C196.257 263.653 209.927 265.898 222.748 264.097C233.893 262.531 244.697 258.127 254.879 253.002C258.454 251.202 261.978 249.276 265.438 247.218C266.171 246.782 268.834 245.752 269.232 244.864C269.558 244.138 268.794 241.588 268.692 240.826C268.262 237.611 267.831 234.395 267.401 231.181L261.392 186.285L272.744 198.882C273.633 199.868 275.322 202.67 276.552 203.108C277.454 203.428 279.689 202.436 280.581 202.245C287.008 200.869 293.436 199.492 299.864 198.116C301.361 197.795 304.736 197.807 305.998 196.802C306.678 196.26 306.71 195.159 306.95 194.114C308.518 187.289 310.086 180.465 311.653 173.641C311.936 172.411 313.511 168.535 313.11 167.297C312.967 166.854 312.271 166.55 311.846 166.261C302.145 159.677 292.443 153.092 282.742 146.508C277.428 142.901 272.113 139.294 266.799 135.688C264.573 134.176 261.839 131.454 259.316 130.608C257.75 130.084 255.472 130.477 253.852 130.425C250.559 130.321 247.267 130.217 243.974 130.112C243.458 130.096 241.652 129.688 241.218 130.025C240.857 130.306 241.007 130.697 240.889 131.367C240.599 133.002 240.597 134.765 240.454 136.424C240.34 137.756 240.567 140.198 240.027 141.403C239.682 142.174 240.12 141.867 239.653 142.239C239.097 142.683 237.323 142.54 236.662 142.625C233.435 143.042 230.208 143.458 226.982 143.874C223.146 144.369 219.267 145.298 215.413 144.871C209.57 144.222 203.27 144.254 197.532 142.887C196.041 142.531 195.504 141.598 194.354 140.322C192.109 137.831 189.887 135.311 187.617 132.846C186.505 131.639 186.982 131.843 185.835 132.301C184.398 132.875 182.94 134.261 181.64 135.141C176.656 138.514 171.673 141.887 166.689 145.26L136.265 165.854C135.63 166.284 134.995 166.713 134.361 167.143Z" fill="#6DBAE4"/>
<path fill-rule="evenodd" clip-rule="evenodd" d="M425.367 169.33C419.095 195.789 406.481 224.639 381.068 233.073C374.89 235.123 368.879 236.671 362.462 235.89C361.851 235.816 361.34 235.911 360.759 235.923C359.718 235.945 360.617 236.361 359.45 235.96C358.54 235.648 357.688 234.867 356.74 234.522C354.218 233.605 351.529 233.428 348.967 232.687C342.67 230.866 336.18 228.619 330.078 226.109C327.205 224.927 324.564 223.281 321.862 221.697C319.115 220.088 316.204 219.089 313.425 217.613C311.23 216.446 307.469 214.926 305.925 212.737C304.279 210.404 306.556 205.435 307.207 202.954C309.421 194.512 312.056 186.194 313.72 177.584C319.464 184.981 327.437 189.563 335.69 192.517C340.169 194.121 344.775 195.28 349.433 196.005C353.662 196.663 358.224 197.46 362.464 196.526C365.664 195.82 369.681 194.185 371.966 191.471C372.782 190.502 373.76 188.726 373.303 187.318C372.723 185.532 371.033 186.372 370.118 185.039C369.321 183.878 369.446 181.161 369.192 179.747C368.743 177.244 368.126 174.809 367.372 172.4C365.911 167.722 364.088 163.033 363.652 158.055C363.272 153.736 364.157 149.652 366.096 145.904C367.012 144.132 369.314 139.312 371.559 139.513C374.025 139.733 370.7 151.282 370.591 153.638C370.16 162.977 371.287 172.928 375.6 181.113C377.251 184.248 379.639 187.897 383.165 188.286C386.899 188.696 389.912 185.432 391.689 182.128C396.026 174.068 393.84 163.009 391.643 154.562C388.949 144.198 381.916 137.055 377.469 127.747C384.108 128.488 387.663 133.175 391.07 139.121C394.822 145.667 397.742 153.526 399.182 161.143C399.909 164.992 399.407 168.856 399.412 172.742C399.413 174.033 399.413 178.796 401.307 178.608C403.332 178.408 404.026 173.036 404.324 171.397C405.006 167.638 405.745 163.879 406.337 160.102C407.386 153.419 407.852 146.575 409.108 139.937C409.321 138.816 409.743 135.703 411.255 136.543C412.42 137.191 412.233 142.005 412.276 143.124C412.38 145.881 412.527 148.639 412.547 151.399C412.577 155.49 411.843 159.725 412.203 163.791C412.438 166.448 413.721 169.383 415.312 165.801C416.89 162.247 417.211 157.816 418.091 153.994C419.015 149.982 419.969 145.911 421.93 142.347C422.474 141.358 423.059 139.789 424.268 140.254C425.146 140.592 425.794 142.906 426.066 143.722C427.291 147.413 427.084 151.515 427.006 155.378C426.912 160.112 426.454 164.741 425.367 169.33ZM303.069 176.196C302.733 176.076 301.31 175.926 300.957 175.892C300.543 175.852 301.013 175.004 300.011 175.245C300.205 175.778 300.548 176.133 301.042 176.311C299.536 176.877 298.425 175.479 297.395 175.3C296.41 175.127 296.368 175.3 295.396 176.456C294.342 175.028 294.539 175.918 293.673 175.919C293.358 175.92 293.345 176.448 292.832 176.385C292.384 176.33 292.337 175.575 292.072 175.486C290.635 175.003 289.156 177.435 287.526 175.325C287.131 177.52 282.605 174.771 280.864 175.156C279.039 175.56 279.826 176.287 278.351 175.044C276.946 173.86 277.338 174.647 275.703 175.616C275.741 175.593 274.78 176.314 274.869 176.326C273.738 176.179 273.802 174.879 272.369 174.948C270.852 175.021 270.204 176.342 268.816 174.716C268.514 175.934 268.451 175.409 267.74 175.716C267.349 175.82 267.007 175.705 266.713 175.374C266.624 175.709 266.429 175.914 266.126 175.989C265.351 176.067 263.897 176.186 263.193 175.772C262.137 175.15 262.986 174.91 262.253 174.211C261.925 176.14 261.206 175.73 259.689 175.911C258.531 176.048 258.276 175.654 257.171 175.462C256.082 175.273 254.675 175.742 253.612 175.942C253.174 176.026 252.587 176.365 252.14 176.246C251.738 176.138 251.566 175.791 251.326 175.7C251.034 175.591 251.096 175.308 250.592 175.17C250.244 175.076 249.622 175.438 249.275 175.501C246.798 175.948 244.42 175.952 242.058 174.87C243.222 177.142 239.339 175.915 238.647 174.974C237.782 176.481 236.735 175.417 234.991 175.535C233.312 175.648 230.786 176.22 230.105 173.896C229.972 174.368 229.019 175.739 228.64 175.948C227.539 176.554 227.408 175.658 226.384 175.292C224.991 174.795 225.282 175.739 224.418 175.931C222.96 176.255 222.171 175.114 220.883 174.508C220.828 175.451 220.8 176.031 220.067 176.618C219.417 173.989 217.098 176.833 217.496 173.319C216.613 173.957 215.372 174.448 215.121 175.739C216.596 175.288 215.278 176.36 215.216 176.395C215.021 176.508 214.363 175.481 214.21 175.336C214.168 175.821 214.126 176.306 214.085 176.79C213.497 176.464 212.945 175.879 212.468 175.586C212.038 175.322 212.654 174.773 211.928 174.735C211.545 174.715 211.145 175.636 210.744 175.715C210.129 175.834 210.425 174.855 210.167 174.888C209.776 174.938 209.137 175.574 208.841 175.562C207.87 175.522 208.528 175.02 207.786 174.789C206.462 174.378 206.547 175.34 205.595 175.687C203.417 176.482 203.636 172.825 201.42 175.264C200.889 175.847 200.548 176.749 199.822 176.698C198.318 176.593 198.846 174.612 199.152 173.642C199.468 173.815 193.657 177.132 193.703 177.002C193.739 176.207 194.653 175.594 193.837 174.887C193.169 176.48 192.466 176.507 190.926 176.804C190.177 176.948 190.03 177.141 189.229 176.795C188.718 176.575 188.375 175.67 187.868 175.62C187.936 175.628 187.005 176.415 186.863 176.486C186.022 176.907 185.49 176.43 184.674 176.603C183.977 176.75 183.703 177.409 183.01 177.228C182.085 176.988 182.628 175.761 181.356 176.103C180.921 176.22 180.66 177.152 179.975 177.344C178.906 177.645 177.597 177.084 176.468 177.376C175.572 177.609 174.907 177.707 174.124 177.756C173.491 177.795 173.751 177.248 172.586 177.894L172.092 176.51C171.508 177.093 170.925 177.675 170.342 178.258C170.231 177.736 170.161 177.207 170.131 176.67C169.261 177.639 168.166 177.804 166.996 177.892C165.73 177.986 164.786 178.292 163.554 178.55C163.165 178.631 162.161 178.761 161.841 178.609C161.888 178.631 161.242 178.333 161.436 178.389C161.352 178.2 161.275 178.006 161.203 177.81C161.094 177.264 160.74 177.24 160.143 177.738C159.834 177.685 159.234 177.234 158.926 177.345C158.131 177.632 158.239 178.317 157.447 178.216C156.934 178.151 156.671 177.307 156.136 177.25C155.318 177.163 154.608 178.181 153.87 178.403C156.113 177.726 150.961 178.251 152.563 178.298C151.513 178.267 150.422 178.21 149.452 178.732C148.915 178.325 149.567 177.506 149.025 177.169C148.533 176.863 148.495 177.671 148.438 177.688C148.748 177.591 148.593 178.278 148.283 178.4C147.316 178.781 146.543 177.813 146.493 176.853C145.672 178.226 145.441 177.674 144.233 177.759C143.042 177.843 142.014 178.536 140.823 178.524C138.466 178.499 136.866 177.588 136.08 175.25C138.591 175.59 141.119 173.795 143.575 174.218C144.382 174.357 144.886 175.031 145.593 174.911C146.464 174.764 147.073 173.708 148.19 173.594C150.654 173.344 153.083 173.587 155.564 173.168C158.527 172.666 161.62 172.369 164.612 172.613C166.924 172.802 168.796 171.82 171.14 171.631C174.172 171.385 177.228 171.342 180.265 171.165C183.385 170.983 186.742 170.43 189.853 170.607C190.825 170.662 191.661 170.768 192.625 170.704C193.033 170.677 193.419 170.369 193.846 170.415C194.404 170.475 194.643 171.109 195.221 171.086C196.203 171.049 197.253 170.15 198.42 170.126C200.34 170.085 202.251 170.09 204.175 169.968C205.869 169.861 207.684 169.422 209.371 169.446C210.561 169.462 210.855 170.588 211.548 170.705C212.795 170.914 219.101 166.926 219.646 170.505C222.929 168.008 227.332 170.122 230.987 169.653C235.681 169.05 240.462 169.588 245.189 169.373C249.999 169.155 254.947 169.357 259.737 169.861C261.721 170.069 263.638 170.265 265.628 170.139C266.516 170.082 267.541 169.831 268.428 170.058C268.643 170.113 270.288 171.389 270.084 171.426C270.982 170.53 270.375 170.398 271.955 170.352C273.174 170.316 274.326 170.609 275.538 170.689C277.713 170.832 279.905 170.497 282.075 170.571C283.887 170.632 285.659 170.929 287.48 170.944C289.444 170.96 291.762 171.021 293.183 172.78C293.033 172.228 292.884 171.676 292.733 171.123C294.925 171.314 297.091 172.183 299.307 171.777C298.746 172.373 298.177 172.861 297.963 173.736C299.158 173.567 299.967 172.64 301.225 172.633C302.281 172.626 302.501 173.215 303.617 172.454C303.754 173.386 303.891 174.319 304.029 175.251C305.574 174.847 304.56 173.567 304.672 172.413C305.928 172.832 306.992 172.351 306.497 174.358C306.115 175.905 304.376 176.668 303.069 176.196ZM300.898 193.433C300.359 195.115 295.699 194.154 294.597 193.976C293.174 193.748 291.545 193.384 290.234 193.204C290.077 192.971 289.888 192.773 289.669 192.61C289.504 192.866 289.295 193.047 289.043 193.153C288.441 193.3 288.439 193.99 287.648 193.838C287.611 194.859 288.25 194.279 288.74 194.65C287.506 195.568 288.07 194.511 287.378 194.527C287.207 194.257 286.968 194.151 286.662 194.209C286.272 194.322 285.913 194.507 285.584 194.766C285.276 195.127 285.012 195.146 284.792 194.822C284.581 194.587 284.325 194.441 284.021 194.386C282.806 194.606 282.466 195.205 281.098 195.107C279.144 194.967 277.03 195.539 275.106 195.238C273.913 195.051 271.921 192.969 271.379 194.999C270.555 193.495 269.242 192.471 268.453 190.934C272.13 190.698 275.805 190.416 279.485 190.269C282.706 190.14 286.231 190.543 289.241 190.374C292.062 190.216 295.048 189.87 297.927 189.584C300.98 189.281 301.99 190.025 300.898 193.433ZM204.984 193.682C206.319 194.092 207.591 193.162 208.885 193.456C209.313 193.553 210.199 194.419 210.394 194.436C210.751 194.468 211.799 193.617 212.248 193.503C215.092 192.784 218.537 192.861 221.38 193.303C222.886 193.536 223.117 192.77 224.433 192.398C225.799 192.011 227.742 192.309 229.181 192.202C232.567 191.95 235.952 192.13 239.315 191.854C242.767 191.572 246.203 191.419 249.656 191.222C252.01 191.087 257.664 189.596 259.614 191.537C261.222 193.137 259.15 195.916 257.542 196.55C256.339 197.023 255.763 196.025 254.87 196.121C253.853 196.229 254.207 197.564 253.3 196.326C252.737 197.557 249.202 197.032 248.189 197.114C245.981 197.291 244.114 197.783 242.611 195.495C242.713 196.154 242.815 196.815 242.916 197.475C240.924 196.291 238.785 196.67 237.055 197.083C236.199 197.287 233.57 198.699 232.642 198.09C232.003 197.671 233.129 196.955 232.051 196.598C231.487 196.41 230.512 197.452 229.822 197.4C227.913 197.254 228.455 195.827 226.58 197.643C225.945 197.032 225.733 195.994 225.817 195.105C224.455 196.396 224.569 198.548 222.133 198.153C221.226 198.007 221.059 196.978 220.586 196.789C219.578 196.384 219.464 197.111 218.591 197.687C218.261 197.904 217.859 198.253 217.471 198.297C216.674 198.385 216.547 197.978 216.438 197.991C215.907 198.056 215.239 198.356 214.61 198.142C214.045 197.95 213.88 196.842 212.885 197.101C211.932 197.349 211.924 198.068 212.097 199.144C211.157 199.036 210.589 198.455 209.887 197.825C209.177 199.664 207.684 198.141 206.858 199.692C205.782 198.264 205.092 198.657 203.757 197.263C203.822 197.845 203.888 198.427 203.953 199.009C202.911 198.786 202.448 197.969 201.559 199.049C200.696 197.264 198.081 199.808 196.737 198.084C196.138 200.268 192.176 199.745 190.503 199.783C189.02 199.817 187.922 199.682 186.473 200.064C185.193 200.402 183.419 200.753 182.214 200.598C181.428 200.497 180.568 200.337 179.587 200.456C178.174 200.626 176.953 201.439 175.489 201.054C173.285 200.475 171.934 197.258 174.389 195.845C176.069 194.878 179.096 195.236 180.945 195.057C184.009 194.761 187.444 194.141 190.512 194.423C192.906 194.643 195.087 194.008 197.529 193.74C199.368 193.539 202.381 193.175 203.581 195.2C204.041 194.609 203.993 193.377 204.984 193.682ZM171.438 221.398C171.109 219.577 185.119 218.574 186.509 218.455C189.429 218.204 192.356 218.026 195.283 217.944C197.688 217.876 199.933 218.386 202.339 217.976C204.587 217.593 207.299 216.807 209.255 218.575C209.543 216.158 217.976 217.335 219.58 217.342C226.564 217.37 233.247 217.388 240.003 216.907C243.864 216.633 247.964 216.263 251.825 216.478C253.567 216.575 254.969 217.091 256.701 216.643C257.831 216.351 259.048 215.743 260.129 216.602C261.393 217.608 261.934 221.021 261.063 222.446C260.428 223.484 259.866 223.369 258.853 223.189C257.295 222.914 256.137 222.513 254.548 223.217C254.806 223.103 253.484 223.431 253.593 223.421C251.794 223.571 249.325 224.968 247.774 223.357C248.396 223.478 249.299 222.246 248.516 222.144C247.927 222.069 247.554 222.769 247.095 223.004C245.525 223.806 244.721 223.556 243.784 221.872C241.893 223.69 241.689 223.187 240.859 220.947C240.219 221.494 240.082 222.788 239.579 223.213C239.504 223.276 239.814 224.062 239.451 224.03C239.113 223.999 239.003 223.385 238.744 223.337C238.578 223.306 238.492 222.767 238.334 222.735C238.162 222.699 237.986 223.043 237.791 223.033C237.271 223.006 235.785 224.234 236.318 222.51C235.531 223.623 235.192 222.913 234.908 221.9C233.999 222.669 233.09 223.436 232.181 224.204C231.758 222.898 231.03 223.254 230.115 223.71C230.391 222.803 230.218 221.945 229.526 222.575C229.125 222.941 228.857 224.099 228.446 224.592C226.787 222.724 226.183 223.236 223.89 223.479C223.015 223.572 221.927 223.751 221.146 223.164C220.458 222.648 220.069 220.753 218.893 222.283C219.156 221.943 218.745 224.558 218.673 224.974C218.154 224.586 217.714 224.108 217.351 223.542C216.675 225.03 214.898 223.694 213.443 223.998C211.152 224.477 208.789 225.284 206.765 223.389C206.623 224.001 204.965 224.78 204.962 224.804C205.061 223.72 205.676 224.101 204.42 223.896C204.189 223.858 203.926 224.32 203.708 224.37C202.959 224.542 202.085 224.379 201.33 224.355C198.191 224.255 195.317 225.028 192.217 225.308C191.173 225.402 189.933 225.588 188.952 225.15C187.941 224.698 187.969 224.186 186.946 224.477C187.27 224.385 186.308 225.509 186.36 225.466C186.222 225.577 185.649 225.029 185.445 225.07C185.386 225.31 185.326 225.549 185.267 225.789C185.02 225.755 184.774 225.721 184.527 225.688C183.853 225.788 183.245 225.03 182.612 225.005C182.728 225.009 180.903 225.765 180.986 225.811C179.711 225.104 180.078 225.309 178.461 225.739C176.932 226.145 175.411 226.05 173.843 226.304C169.282 227.04 171.999 224.5 171.438 221.398ZM167.41 246.735C166.553 245.384 168.834 244.916 169.563 244.797C170.762 244.601 172.352 244.991 173.151 244.78C174.367 244.459 175.541 243.691 176.91 243.483C178.639 243.22 180.38 243.178 182.115 243.013C182.693 242.958 183.409 242.737 183.972 242.774C184.809 242.83 185.157 243.322 185.833 243.326C186.985 243.332 188.406 242.524 189.586 242.376C191.098 242.186 192.625 242.096 194.143 242.013C197.344 241.836 200.511 241.909 203.71 241.905C205.169 241.903 209.054 240.221 209.781 242.107C210.792 240.678 213.387 240.872 214.833 240.831C217.38 240.758 219.901 240.485 222.446 240.354C224.625 240.241 227.06 240.759 229.201 240.396C230.38 240.196 230.771 239.776 232.108 239.966C233.102 240.106 234.617 239.523 235.47 239.781C235.426 239.767 236.535 240.531 236.188 240.555C236.57 240.528 236.547 240.824 236.967 240.692C237.519 240.519 237.265 239.748 238.409 239.474C240.192 239.047 242.57 239.542 244.422 239.432C246.22 239.326 248.014 239.28 249.813 239.289C250.641 239.293 251.666 239.073 252.472 239.253C252.866 239.341 253.705 239.913 254.04 239.856C254.988 239.691 255.471 238.959 256.753 239.005C258.206 239.056 259.513 239.034 260.958 238.91C262.357 238.792 262.582 238.57 263.275 239.863C263.962 241.146 264.151 242.817 262.887 243.689C263.708 243.629 264.719 244.851 263.751 245.528C263.152 245.947 261.953 245.002 261.236 245.07C260.354 245.155 259.661 245.673 258.701 245.705C257.691 245.74 256.666 246.022 255.67 246.044C254.633 246.066 253.849 245.551 252.865 245.77C251.999 245.964 251.908 246.752 250.865 246.06C250.347 245.715 250.26 244.44 249.553 244.428C248.606 244.412 248.984 245.771 248.439 246.401C248.293 244.457 246.942 247.674 246.405 245.314C245.91 246.098 244.078 247.194 243.19 246.564C242.38 245.99 242.649 244.692 242.312 243.756C241.751 245.438 240.245 247.182 240.382 244.121C239.65 245.122 237.673 244.964 238.169 246.714C237.573 246.701 237.432 245.756 236.931 245.685C236.498 245.623 236.154 245.993 236.088 245.987C236.325 246.009 235.379 246.359 235.364 246.363C236.005 246.218 233.516 245.972 233.94 245.975C233.362 245.97 232.656 246.495 231.98 246.494C231.365 246.492 230.754 246.223 230.146 246.146C228.572 245.947 228.9 246.331 227.911 246.88C227.545 247.083 227.453 247.428 226.933 247.385C226.55 247.353 226.407 246.797 226.363 246.792C225.824 246.732 226.222 246.53 225.385 246.624C225.288 246.807 225.193 246.991 225.096 247.174C224.794 247.604 224.402 247.712 223.92 247.497C222.68 247.793 218.57 249.073 218.972 246.702C218.342 247.044 217.713 247.386 217.083 247.729C216.812 245.817 213.39 248.352 212.626 248.48C211.645 248.643 211.554 248.225 210.627 248.002C210.46 247.962 210.125 248.575 209.733 248.487C208.716 248.26 208.535 248.147 208.36 246.92C207.635 248.426 207.032 247.753 205.716 248C205.425 248.055 205.239 248.692 204.821 248.582C204.52 248.503 204.512 247.891 204.304 247.813C204.118 247.741 204.146 247.258 203.87 247.19C203.555 247.11 202.478 248.091 202.17 248.243C201.473 248.584 200.33 249.148 199.65 248.979C198.809 248.771 199.183 248.078 197.995 248.156C196.122 248.278 195.34 250.05 194.174 247.258C193.648 248.376 193.715 248.68 192.87 249.049C192.246 249.321 190.665 249.036 189.842 249.003C186.332 248.859 182.88 250.188 179.398 249.84C177.867 249.687 176.577 249.347 175.032 249.625C173.409 249.918 171.822 250.348 170.176 250.521C169.339 250.609 167.589 250.876 167.178 249.687C166.817 248.64 168.165 247.926 167.41 246.735ZM174.296 289.66C169.742 293.046 165.97 297.669 161.788 301.583C157.596 305.508 154.269 309.87 150.499 314.217C147.013 318.234 143.811 322.035 139.596 325.071C136.93 326.993 134.551 329.358 131.812 331.169C129.76 332.526 126.651 334.311 127.652 330.161C128.678 325.908 130.572 321.609 132.217 317.636C134.556 311.991 136.912 306.397 139.442 300.858C140.393 298.777 140.925 296.705 142.433 295.047C144.073 293.243 145.222 290.887 147.019 289.182C154.577 282.012 165.967 287.552 174.296 289.66ZM188.582 292.091C186.516 293.294 184.204 293.593 182.015 294.388C180.149 295.066 178.414 296.272 176.408 296.362C178.234 294.837 179.803 292.767 181.863 291.61C184.179 290.308 186.281 291.256 188.582 292.091ZM279.254 302.119C271.655 299.27 264.581 295.072 257.18 291.694C255.902 291.11 245.91 287.453 246.113 285.713C253.115 284.288 260.326 281.842 267.345 284.509C273.73 286.935 278.923 292.754 283.866 297.625C285.155 298.896 293.131 304.683 292.417 306.526C291.923 307.804 288.08 307.456 287.173 307.194C286 306.855 285.325 306.064 284.405 305.195C282.868 303.743 281.167 302.837 279.254 302.119ZM265.226 254.521C266.381 253.341 267.071 251.55 268.174 250.461C269.59 249.061 271.876 249.743 273.424 250.47C278.071 252.652 282.042 256.32 286.66 258.596C291.777 261.119 296.207 264.49 300.823 267.965C305.042 271.141 309.604 273.77 313.91 276.8C318.299 279.889 323.211 281.897 327.66 284.876C332.187 287.909 336.697 290.953 341.047 294.295C348.805 300.253 356.883 306.373 362.622 314.844C365.572 319.199 368.334 324.138 370.498 329.028C372.466 333.473 374.601 339.643 372.051 344.267C369.602 348.708 365.428 352.206 361.895 355.52C360.557 356.774 359.284 358.298 357.55 358.842C355.44 359.503 352.979 359.321 350.81 359.516C339.21 360.561 328.404 359.575 316.973 357.27C305.951 355.047 294.883 353.802 283.777 352.258C277.511 351.386 271.247 350.371 265.066 348.92C262.424 348.299 259.736 347.584 257.15 346.738C254.893 346 252.994 344.375 250.672 343.731C240.82 340.997 229.548 339.952 219.794 335.354C228.425 331.367 237.598 328.96 246.444 325.648C255.755 322.162 264.849 319.237 274.663 318.246C279.712 317.736 284.232 316.303 289.09 314.804C293.719 313.374 298.552 312.936 303.307 312.295C305.421 312.01 311.456 312.437 312.157 309.365C313.2 304.793 307.271 304.265 304.743 304.674C301.158 305.255 298.201 306.25 295.457 302.981C292.654 299.643 289.932 296.225 287.079 292.929C281.789 286.818 276.337 279.75 268.86 277.008C259.738 273.664 249.159 276.838 240.057 278.741C230.444 280.75 220.846 282.673 211.412 285.593C207.506 286.802 202.467 289.466 198.413 289.039C194.417 288.616 189.891 287.89 186.03 286.609C184.283 286.03 182.847 284.956 181.283 283.956C179.25 282.654 177.023 281.819 174.865 280.807C170.503 278.761 166.25 276.876 161.543 276.072C157.579 275.395 153.37 274.993 149.529 276.537C145.761 278.052 142.422 281.136 139.792 284.431C136.936 288.011 134.576 292.022 132.235 296.021C131.111 297.941 129.74 299.616 128.575 301.492C127.598 303.069 127.028 304.819 125.994 306.351C123.68 309.778 122.109 314.161 120.707 318.148C119.148 322.575 117.417 327.841 117.79 332.658C117.93 334.478 118.077 336.89 118.711 338.578C119.517 340.725 120.666 340.67 122.323 341.48C125.169 342.871 125.968 346.717 129.646 345.967C133.097 345.264 136.089 342.105 138.607 339.586C141.888 336.305 145.028 332.844 148.168 329.397C151.389 325.859 154.564 321.934 157.127 317.771C158.136 316.133 158.922 314.282 160.115 312.79C161.633 310.889 163.338 310.661 165.4 309.904C183.431 303.284 201.548 296.898 220.142 292.527C224.596 291.48 229.087 290.129 233.463 288.736C238.104 287.257 240.508 288.82 244.338 291.633C252.341 297.513 261.799 301.654 270.71 305.49C273.516 306.698 277.983 306.775 280.176 309.157C267.175 311.359 254.786 315.596 242.246 319.816C236.063 321.896 229.81 323.7 223.603 325.689C217.395 327.679 211.423 330.258 205.3 332.501C199.206 334.734 192.766 335.645 186.613 337.705C180.332 339.807 174.078 341.254 167.63 342.531C161.121 343.822 154.656 345.311 148.124 346.467C145.133 346.996 142.143 347.545 139.185 348.272C136.291 348.985 133.495 350.691 130.587 351.086C117.598 352.852 104.863 356.787 91.9249 359.011C82.2644 360.672 65.4573 362.988 59.1928 352.218C52.8933 341.387 60.6218 328.752 67.5177 321.008C71.8032 316.194 76.6187 311.958 81.671 308.19C87.0784 304.157 92.281 299.802 97.6894 295.775C109.929 286.661 123.2 279.228 136.35 271.905C142.661 268.39 148.759 264.621 154.899 260.763C157.946 258.848 159.633 261.938 162.042 264.037C163.936 265.69 167.415 269.761 170.066 267.879C170.168 268.556 170.27 269.234 170.372 269.913C171.148 269.519 171.925 269.126 172.702 268.733C173.223 270.252 173.162 271.197 174.619 271.995C175.514 272.485 177.423 273.075 178.276 272.212C178.45 272.812 178.624 273.412 178.798 274.012C179.544 273.948 179.688 271.578 179.829 271.023C181.106 273.097 182.874 274.83 185.12 275.416C185.131 275.281 184.755 273.577 184.771 273.567C185.482 273.083 186.379 275.153 186.755 275.597C188.004 277.066 188.75 276.838 190.13 275.652C190.23 275.773 190.697 277.128 190.765 277.103C191.064 276.998 191.631 275.798 191.693 275.688C191.607 277.267 194.349 277.585 195.318 277.246C195.1 276.784 194.883 276.321 194.666 275.859C198.04 275.358 199.365 279.341 202.603 279.139C204.997 278.989 203.077 278.408 204.432 277.268C205.615 276.272 205.826 278.45 205.942 278.381C206.168 278.118 206.343 277.816 206.467 277.475C206.905 279.34 210.393 281.013 210.032 277.947C211.404 278.556 212.378 279.569 213.896 279.782C215.742 280.042 217.713 279.607 219.554 279.437C223.521 279.07 227.261 278.171 230.836 276.151C232.957 274.954 235.213 273.868 237.206 272.423C238.874 271.214 242.038 267.544 244.259 269.124C243.69 267.26 246.367 268.988 246.453 266.586C246.883 266.947 247.313 267.306 247.743 267.667C248.001 267.039 247.929 266.049 248.274 265.501C248.748 264.749 248.98 265.192 249.384 264.769C249.837 264.295 250.232 263.028 250.774 262.667C251.333 262.296 251.991 262.738 252.592 262.414C253.508 261.919 257.448 257.092 256.781 261.228C258.475 260.589 257.169 260.004 257.38 258.749C257.806 256.236 258.84 258.045 259.87 258.264C261.558 258.623 261.524 257.073 262.464 255.947C263.323 254.918 264.939 254.458 264.382 252.671C265.018 253.051 265.152 253.797 265.226 254.521ZM163.523 200.833C162.194 202.478 161.199 201.775 159.721 201.534C159.563 200.945 159.293 200.864 158.911 201.289C158.473 201.569 158.002 201.753 157.498 201.841C156.286 202.172 155.027 202.031 153.842 202.534C153.876 202.093 154.293 201.309 154.026 200.861C152.779 201.819 152.007 202.428 150.476 202.447C149.235 202.461 147.058 201.408 146.028 202.667C145.996 202.177 145.964 201.687 145.933 201.197C145.429 201.476 144.99 201.85 144.617 202.318C144.546 201.592 144.507 201.044 144.075 200.457C143.255 202.33 142.358 202.374 140.766 201.658C140.989 201.758 139.172 200.575 139.242 200.903C138.667 198.214 147.734 198.436 148.686 198.33C151.063 198.063 153.439 197.908 155.82 197.664C158.077 197.434 159.763 197.043 161.325 199.136C160.629 196.113 167.216 196.262 163.523 200.833ZM59.5739 153.947C59.8236 158.518 60.7392 163.376 59.1398 167.775C57.8542 171.311 55.2893 175.305 52.5262 177.612C46.8685 182.337 42.0735 176.556 41.2858 170.202C40.4652 163.574 42.092 155.476 47.2277 151.39C50.2965 148.948 53.2679 149.118 56.8008 149.92C57.6304 150.109 58.9775 150.036 59.452 150.953C59.5634 151.167 59.4635 153.943 59.5739 153.947ZM134.715 214.845C133.737 215.393 132.715 215.714 131.853 216.459C131.554 216.719 131.452 217.309 131.134 217.527C130.556 217.924 129.73 217.661 129.128 217.989C128.131 218.53 127.416 219.305 126.231 219.804C124.472 220.544 122.929 221.561 121.265 222.524C118.494 224.13 115.52 225.508 112.623 226.815C111.16 227.475 107.116 228.761 107.256 231.14C106.929 231.238 106.595 230.443 105.911 230.507C104.974 230.593 103.735 231.798 102.762 232.095C100.941 232.649 99.531 232.697 99.531 235.277C98.9516 234.84 98.8043 233.769 98.0331 233.627C97.165 233.467 96.7998 234.508 96.1055 234.832C95.2879 235.213 94.2709 234.847 93.4613 235.253C93.1071 235.669 92.7136 236.033 92.2805 236.342C91.84 236.398 91.4014 236.384 90.9654 236.297C89.2461 236.702 87.6643 237.421 85.9411 237.794C84.2618 238.158 83.1115 238.29 83.8178 240.497C82.0211 240.888 81.5826 238.769 79.5557 239.545C77.0713 240.493 74.7492 241.178 72.1559 241.757C70.8332 242.052 69.4512 242.711 68.119 242.866C67.1685 242.977 66.2814 242.599 65.3454 242.716C64.2176 242.857 63.311 243.437 62.1437 243.459C61.0364 243.481 59.8741 243.26 58.7867 243.043C58.9405 243.529 59.1329 243.996 59.3636 244.443C58.6119 244.268 58.2647 243.264 57.6274 243.115C56.9586 242.959 56.3592 243.726 55.8023 243.556C55.565 243.483 55.7229 242.671 55.2988 242.515C54.9117 242.375 54.7489 242.541 54.3653 242.474C54.2374 242.452 52.6336 242.356 52.3778 242.506C51.9313 242.769 52.3833 243.262 52.2944 243.335C50.786 244.576 50.7675 243.906 50.0952 242.61C49.1077 240.708 47.917 241.909 46.1223 241.576C44.1219 241.205 42.546 242.186 40.5776 242.046C38.4543 241.895 35.9589 240.13 34.0813 239.099C30.0275 236.872 26.0741 234.765 22.6696 231.393C16.014 224.801 10.5996 216.694 7.40724 207.414C3.97714 197.443 3.32716 187.045 3.60248 176.467C3.76811 170.105 4.22633 163.747 5.1287 157.46C5.7499 153.136 5.88002 145.45 10.268 143.481C11.0222 153.607 8.64191 163.925 10.1431 173.986C10.5951 177.016 11.6975 181.054 13.7838 183.298C16.8726 186.62 17.5954 181.818 17.8746 179.165C18.3946 174.238 19.3605 169.339 20.0448 164.435C20.7281 159.534 21.2111 154.578 22.1611 149.728C22.5078 147.96 25.3019 135.01 27.3528 135.624C26.9377 145.044 25.8358 154.303 25.7924 163.758C25.7754 167.55 25.4697 171.556 25.9622 175.323C26.2159 177.262 27.8048 182.951 30.5375 182.477C33.0664 182.038 30.2862 178.03 30.05 176.485C29.4246 172.395 30.2218 167.305 30.8047 163.245C31.9086 155.562 34.3705 147.692 38.3943 141.271C41.9986 135.522 47.5478 130.048 54.2334 131.062C57.0895 131.495 59.3182 132.284 60.7532 135.182C61.8795 137.456 66.3154 140.041 63.7446 142.889C61.4045 145.482 57.6194 143.406 55.0181 142.788C51.8329 142.032 48.4194 142.942 45.7557 145.016C41.1854 148.573 38.5811 154.934 37.731 160.899C36.5852 168.942 39.648 189.996 50.9288 185.277C58.4231 182.143 64.0677 170.867 63.4384 162.234C63.1861 158.778 61.9704 152.217 66.2729 151.284C71.7852 150.09 72.5639 156.841 72.0055 161.23C71.1944 167.612 68.1585 173.547 64.6856 178.593C61.6587 182.991 58.1384 185.741 54.4961 189.374C53.4178 190.449 50.6671 192.867 51.1291 194.867C51.6356 197.059 55.9581 197.682 57.6888 198.042C66.2515 199.824 75.9075 198.185 84.4556 196.942C102.024 194.385 119.362 188.089 133.768 176.512C134.35 183.675 135.084 190.814 135.354 198.002C135.485 201.492 135.518 205.032 135.877 208.503C136.099 210.637 136.897 213.619 134.715 214.845ZM85.9995 239.803C85.3097 240.204 86.0555 237.779 85.8637 238.581C86.8941 238.992 86.9395 239.399 85.9995 239.803ZM158.88 153.12C159.974 151.779 162.966 148.589 163.915 151.616C164.268 150.326 164.314 148.414 165.678 150.157C166.221 148.016 172.21 148.217 173.694 148.122C178.444 147.821 183.213 147.659 187.946 147.135C197.672 146.057 207.568 146.613 217.33 146.578C219.444 146.57 221.552 146.443 223.65 146.784C225.675 147.112 227.804 148.035 229.867 147.698C231.703 147.398 232.906 146.836 234.794 147.076C237.055 147.364 239.249 147.569 241.529 147.56C251.614 147.519 261.695 147.973 271.783 147.99C273.749 147.994 276.104 147.567 277.949 148.495C278.632 148.839 279.379 149.983 279.901 150.109C280.499 150.253 280.143 149.216 280.944 149.684C282.016 150.311 281.186 152.239 280.478 152.544C280.902 152.361 279.712 152.181 279.831 152.174C279.266 152.208 278.784 152.689 278.178 152.659C277.254 152.614 276.481 151.988 275.736 151.437C275.723 151.662 276.133 153.162 275.665 153.238C275.264 153.303 274.887 151.824 274.847 151.48C272.59 153.692 270.199 152.459 267.399 152.739C265.413 152.938 261.271 154.41 259.885 152.106C259.828 152.596 259.651 153.025 259.355 153.393C258.959 154.063 258.617 154.006 258.327 153.22C258.23 153.225 257.265 153.459 257.246 153.457C256.567 153.397 255.686 153.126 254.995 153.061C253.927 152.959 254.123 153.824 253.272 153.838C252.807 153.845 251.621 153.099 250.81 153.052C249.405 152.971 247.971 153.633 246.585 153.432C245.631 153.295 244.769 152.432 243.833 152.398C242.667 152.355 242.289 153.344 241.365 151.956C241.175 151.898 241.058 152.715 240.983 152.729C241.001 152.725 240.103 152.873 239.997 152.919C239.813 152.997 239.095 153.363 238.877 153.366C238.406 153.376 238.149 153.001 237.649 152.992C236.822 152.977 234.181 153.786 234.255 152.085C231.303 153.301 228.785 152.827 225.755 153.114C224.365 153.247 223.492 153.04 222.169 152.756C220.513 152.401 219.413 152.847 217.761 152.938C216.174 153.025 215.673 152.278 214.333 151.604C213.805 151.338 213.455 150.988 212.807 151.136C212.438 151.22 212.701 151.912 212.591 151.959C212.022 152.203 211.624 151.944 210.844 152.004C209.402 152.113 208.828 153.451 207.347 152.195C207.839 152.129 208.331 152.061 208.824 151.995C207.407 151.327 205.537 150.987 205.88 153.417C204.672 153.229 205.718 152.315 205.124 151.987C204.53 151.661 203.865 152.208 203.117 152.478C201.141 153.19 199.493 152.836 197.434 152.709C195.092 152.563 189.617 154.686 187.94 151.931C187.89 152.511 187.329 154.128 186.582 154.052C186.339 154.027 187.017 152.31 187.094 152.129C186.71 153.038 184.955 153.211 184.09 153.683C184.188 153.194 184.284 152.705 184.381 152.217C183.578 153.167 183.188 152.587 182.244 152.905C181.831 153.043 181.233 153.99 180.88 154.047C180.469 153.517 179.951 153.289 179.329 153.363C178.914 153.248 178.5 153.225 178.086 153.295C176.428 153.429 174.917 154.453 173.268 153.755C171.84 153.151 171.288 151.597 170.437 154.07C170.213 153.63 169.989 153.19 169.765 152.751C169.489 153.228 169.213 153.705 168.936 154.182C167.856 153.396 167.79 152.941 166.547 153.229C166.255 153.359 165.956 153.34 165.65 153.175C165.577 153.417 165.504 153.659 165.43 153.901C165.401 154.509 165.238 154.711 164.943 154.504C164.694 154.404 164.47 154.254 164.269 154.051C163.447 154.121 162.397 154.362 161.514 154.229C161.174 154.178 159.038 152.926 158.88 153.12ZM184.042 136.756C184.139 136.921 184.236 137.086 184.333 137.252C182.998 138.035 182.684 137.585 182.546 136.012C183.198 136.026 183.31 137.301 184.042 136.756ZM184.87 135.833C185.512 136.148 186.25 136.767 186.855 135.938C187.263 137.254 184.235 139.051 184.87 135.833ZM189.021 136.415C190.371 137.428 187.134 136.613 187.139 136.615C187.721 136.018 188.348 135.951 189.021 136.415ZM200.629 130.762C201.092 133.358 202.369 133.284 204.429 132.077C207.434 130.318 207.942 127.437 208.151 123.996C208.352 120.697 208.715 119.42 211.777 120.108C213.913 120.589 215.721 120.185 217.875 120.119C220.174 120.049 220.984 120.439 221.169 123.067C221.354 125.699 221.776 127.698 223.495 129.701C225.242 131.737 227.573 132.954 229.843 134.093C231.011 134.678 232.108 135.308 233.4 135.435C233.9 135.484 236.506 135.118 236.561 136.034C236.601 136.723 232.993 138.666 232.61 138.897C230.936 139.909 229.268 140.816 227.439 141.429C223.234 142.839 218.774 142.922 214.418 142.836C207.395 142.699 197.688 139.398 193.488 132.474C195.869 131.903 198.249 131.333 200.629 130.762ZM199.999 108.289C198.888 107.253 198.168 105.687 197.245 104.46C196.78 103.841 196.439 103.644 195.996 103.334C195.529 103.008 195.266 103.47 194.877 102.703C193.871 100.721 196.975 97.9328 193.683 97.1702C192.57 96.9115 189.889 97.8923 189.564 96.1189C189.104 93.6119 193.411 93.4481 194.424 92.1754C196.439 89.6456 195.071 85.3569 196.298 82.4385C197.46 79.6739 200.458 79.1827 202.824 78.3519C206.122 77.1952 209.459 76.5241 212.807 75.5984C215.148 74.9512 219.038 72.3514 221.209 74.6487C217.858 75.4751 219.806 76.7728 222.039 77.5049C224.568 78.3352 227.249 78.6588 229.87 78.8902C232.568 79.1278 235.317 79.1733 237.983 78.5755C240.448 78.0227 243.202 75.6416 245.786 76.2516C244.352 79.0229 240.08 80.5365 237.484 81.2624C236.161 81.6321 235.314 81.5166 235.492 83.3493C235.663 85.1254 237.053 86.9065 237.367 88.757C237.782 91.2058 237.42 93.4565 236.635 95.7593C235.863 98.0255 235.683 98.3213 236.358 100.486C237.409 103.858 235.15 107.584 233.063 110.032C224.62 119.932 208.465 116.182 199.999 108.289ZM221.451 49.124C221.485 49.225 221.456 49.1867 221.451 49.124V49.124ZM224.08 74.107C223.73 74.3973 221.714 75.0067 221.798 74.1314C221.911 72.9581 223.728 73.3821 224.08 74.107ZM228.675 50.4105C228.202 50.0187 226.877 50.1796 227.846 48.6944C228.161 49.3476 228.418 49.8788 228.675 50.4105ZM196.879 41.0216C197.482 39.2811 198.15 37.6615 198.422 35.8082C198.589 34.6665 198.256 33.3628 199.692 33.1835C197.862 32.2966 197.843 28.7954 197.735 26.9805C197.586 24.4811 196.876 21.1346 197.865 18.8083C198.879 16.4186 200.248 16.4581 200.661 19.3041C200.823 20.4185 200.204 20.7788 200.088 21.5549C199.858 23.0901 200.316 22.7535 201.207 21.584C201.575 22.7727 201.716 24.559 203.213 24.4834C203.113 24.162 202.54 23.4528 202.732 23.0535C203.026 22.4402 204.464 23.3772 204.646 23.5191C205.96 24.5398 206.244 25.4716 205.308 26.759C206.605 26.9144 205.516 28.176 206.353 28.5046C207.63 29.0063 206.774 26.6297 206.636 26.2118C207.413 26.5487 207.673 26.9339 208.166 27.616C208.455 28.0866 208.718 28.5756 208.955 29.0813C209.22 30.0048 209.764 30.2357 210.589 29.7756C212.244 30.3523 214.527 30.2618 216.01 31.2703C216.687 31.7304 216.931 32.7378 217.497 33.1202C218.134 33.5509 218.987 33.3556 219.671 33.6259C219.42 34.2575 219.623 34.5994 220.277 34.6527C220.785 34.7043 221.278 34.8314 221.754 35.034C222.109 34.7359 222.497 34.5 222.915 34.3291C223.196 34.8791 223.593 35.0151 224.107 34.7381C225.633 35.0556 226.366 35.6967 227.335 36.6552C228.205 37.5155 227.497 37.5854 228.45 37.5088C228.834 37.4783 229.505 36.7562 230.381 36.8972C230.885 37.006 231.371 37.1792 231.84 37.415C232.346 37.8963 232.884 37.9568 233.452 37.5971C234.376 38.0983 234.467 38.9874 235.593 39.109C236.838 39.2439 236.438 37.5183 237.293 39.9515C238.445 37.3718 238.867 41.4818 240.056 41.8137C241.288 42.1578 241.421 41.0477 242.475 42.2605C242.791 42.624 242.774 43.2245 243.128 43.6097C243.71 44.2402 244.496 44.1143 245.001 44.9746C244.72 44.4945 245.068 46.6763 245.062 46.6041C245.14 47.5666 244.37 48.645 245.948 48.5628C245.93 48.6638 245.173 49.891 245.025 49.7523C244.989 49.6124 244.958 49.4703 244.934 49.3265C244.765 49.4076 244.69 50.5765 244.721 50.7829C244.854 50.8063 244.909 50.6958 244.885 50.4516C244.626 51.353 245.016 51.9258 244.518 52.7816C244.2 53.3283 243.328 53.7396 242.864 54.0771C241.746 54.8918 240.651 55.7094 239.56 56.5769C237.016 58.5994 234.167 61.0388 230.964 61.4606C232.573 59.7051 241.83 53.0613 237.187 51.1543C236.326 50.8007 234.758 50.466 233.857 50.3917C232.737 50.2995 231.579 51.0122 230.343 50.567C228.852 50.0314 229.414 48.474 228.503 47.9151C226.569 46.7301 227.026 49.5175 226.418 50.2473C225.778 49.5019 225.915 49.139 224.905 49.0718C223.88 49.003 223.636 50.0559 222.44 49.3998C220.792 48.4962 221.664 46.6957 219.327 46.6535C219.366 46.2583 219.705 45.1538 219.259 44.8458C218.658 45.7122 219.123 46.6813 218.565 47.5155C218.285 47.934 217.679 48.2676 217.237 48.403C216.2 48.7193 216.053 49.3249 216.222 47.591C215.453 49.1284 213.098 48.4962 211.697 48.3414C209.42 48.0899 206.999 47.611 204.815 46.7995C202.796 46.0485 201.718 44.7587 200.052 43.5848C199.423 43.1407 199.122 43.3106 198.219 43.0347C197.328 42.7628 196.46 42.2355 196.879 41.0216ZM201.685 13.7981C202.029 13.5679 202.276 17.0028 201.859 17.6445C201.096 16.3035 199.743 14.3364 201.685 13.7981ZM202.783 12.428C203.889 11.316 203.121 14.1881 202.918 14.67C202.508 14.3782 202.099 14.0864 201.689 13.7946C202.212 13.4383 202.342 12.8715 202.783 12.428ZM244.5 7.79913C254.715 10.1813 264.838 14.634 273.031 21.9618C280.494 28.6361 285.761 38.1061 288.714 48.1793C291.78 58.635 290.75 70.2351 283.457 78.2375C279.615 82.4524 274.542 84.9956 269.707 87.4771C267.39 88.666 265.004 89.6562 262.678 90.8178C261.008 91.652 258.969 92.9863 257.063 92.7554C258.035 91.6182 259.446 91.5949 260.623 90.9C262.045 90.0591 263.206 88.4462 264.432 87.294C265.649 86.15 268.348 82.5479 270.218 83.4198C269.958 81.5005 271.926 80.6097 272.813 79.3442C273.75 78.0055 273.818 76.4398 275.546 76.0019C273.69 74.3878 274.258 71.3446 274.662 69.1478C275.179 66.3382 275.417 63.759 275.621 60.9C275.988 55.746 276.284 49.18 273.721 44.6493C272.889 43.1779 271.831 41.8259 271.089 40.2973C270.194 38.4557 270.391 36.835 270.391 34.8158C268.757 36.0369 268.412 33.5476 267.721 32.3343C267.203 31.424 266.522 30.9156 266.355 29.7701C266.233 28.937 267.047 28.796 266.601 27.9224C266.054 28.3814 265.836 29.0929 265.559 29.7534C265.053 29.5292 265.649 28.7477 265.36 28.494C265.351 28.4868 264.377 28.0167 264.425 28.0844C263.798 27.2014 263.597 25.7361 263.289 24.6851C262.141 25.3315 262.356 25.2554 261.075 24.1754C260.849 23.9853 259.722 23.1122 259.615 22.8267C259.12 21.4921 259.988 22.2826 259.746 21.4543C259.048 19.0751 255.133 19.525 254.823 15.9599C252.914 17.3068 252.185 15.3984 251.057 14.0411C249.9 12.6507 247.96 12.1158 248.064 9.91041C247.463 10.1389 246.862 10.3667 246.262 10.594C246.574 8.55891 243.853 8.68851 242.868 7.65616C243.415 7.6637 243.959 7.71138 244.5 7.79913ZM246.056 133.846C247.002 132.905 246.715 134.157 247.324 134.014C247.845 133.892 247.948 133.454 248.448 133.32C250.506 132.767 253.583 133.461 255.748 133.342C258.255 133.204 262.552 133.783 263.747 137.042C264.467 139.005 263.368 138.337 262.158 138.191C261.22 138.079 260.386 138.29 259.457 138.279C258.998 138.358 258.541 138.35 258.085 138.255C257.863 138.093 257.732 137.863 257.691 137.568C256.399 137.351 255.027 138.2 253.597 138.242C251.687 138.299 249.991 137.892 248.54 136.46C247.963 137.415 247.571 137.889 246.533 137.995C246.506 137.998 245.493 137.545 245.336 137.5C245.129 137.44 244.604 137.924 244.204 137.786C244.913 136.529 245.017 134.878 246.056 133.846ZM376.453 145.189C376.79 143.886 377.072 142.567 377.379 141.256C382.092 147.217 386.216 155.198 388.072 162.844C389.277 167.812 391.153 176.814 385.406 179.377C380.725 181.464 378.114 173.982 376.93 170.296C374.315 162.161 374.315 153.467 376.453 145.189ZM165.603 51.7742C165.663 51.7604 162.552 53.7712 163.577 52.1433C163.989 51.4884 165.551 51.0283 166.243 51.0283L165.603 51.7742ZM162.61 52.6262C162.25 52.9625 161.886 53.295 161.52 53.623C161.168 53.0047 160.814 52.3859 160.462 51.7676C161.157 51.4423 164.106 51.1981 162.61 52.6262ZM160.417 115.143C159.766 114.653 159.25 114.913 159.054 115.736C159.054 114.918 159.438 113.016 160.027 112.795C160.408 112.651 158.761 110.486 159.224 109.919C160.401 110.668 159.697 111.386 160.041 112.354C160.197 112.79 160.665 113.203 160.767 113.538C160.941 114.107 161.644 116.064 160.417 115.143ZM157.228 110.271C156.561 110.46 157.728 111.683 157.727 112.224C157.726 112.633 157.285 112.946 157.102 113.506C156.707 114.717 157.387 115.536 156.268 116.461C156.268 113.806 154.664 106.769 157.746 105.476C156.243 104.16 157.477 102.642 158.656 104.216C159.789 105.73 159.067 109.748 157.228 110.271ZM155.622 99.7921C155.016 97.4055 153.193 96.5707 151.11 96.7123C151.189 95.4901 152.022 93.7284 152.624 95.9308C152.872 95.2797 153.043 94.4305 153.607 93.9993C154.558 97.31 159.296 99.1394 156.346 102.727C156.105 101.749 155.871 100.769 155.622 99.7921ZM150.116 96.8899C139.144 97.774 123.74 100.304 114.96 90.9583C109.234 84.8646 109.54 75.3752 114.167 68.605C116.807 64.7414 120.411 62.0212 124.031 59.4298C125.428 58.429 126.611 57.7691 128.144 57.1941C128.393 57.1641 128.626 57.2257 128.845 57.3789C128.931 56.9671 129.139 56.6629 129.471 56.4637C130.064 56.1118 130.907 55.9858 131.249 55.2548C130.885 56.628 130.697 58.0416 130.564 59.462C130.268 59.0795 129.973 58.6971 129.678 58.3147C129.431 60.9023 127.005 59.336 125.557 59.659C126.511 61.1265 127.193 61.6593 127.275 63.5986C126.564 62.1405 125.079 61.182 123.697 60.7124C124.447 63.1784 124.978 64.6421 124.222 67.3462C123.31 66.7673 123.248 65.3769 122.142 65.0439C121.849 66.6563 121.798 68.4457 121.424 70.0103C118.59 68.5739 118.866 72.4425 120.004 74.3568C120.609 75.3752 120.906 76.5541 121.446 77.5315C122.771 79.9298 121.764 76.3438 123.237 76.5136C122.906 79.0429 122.791 79.2948 124.457 81.147C126.082 82.9531 126.926 85.459 128.664 87.1557C129.168 86.4409 128.376 85.6927 128.307 85.0083C129.924 85.3097 130.682 87.1124 132.238 85.5156C132.916 86.9848 133.65 88.6027 135.274 88.9041C134.201 86.6357 137.337 88.1742 138.141 88.4961C138.751 88.7404 139.844 88.9346 140.079 89.0284C141.404 89.5601 140.496 88.606 141.3 90.3494C142.48 89.9531 142.926 88.8647 144.339 89.7844C145.487 90.5326 145.489 91.8136 145.752 93.1262C146.026 92.2676 146.302 91.4095 146.605 90.5625C146.913 90.7068 148.206 92.2881 148.065 92.2953C151.091 92.1305 150.984 94.2185 150.116 96.8899ZM134.711 54.0865C135.318 53.6125 136.06 54.2436 136.742 54.0737C137.687 53.8395 138.224 52.9404 139.279 52.8438C138.986 53.8867 138.435 53.789 137.968 54.6077C137.809 54.8868 137.892 55.5562 137.751 55.7172C136.568 57.0631 136.16 55.9647 134.952 54.9457C135.057 56.1745 135.27 56.5625 134.228 56.8922C133.285 57.1913 131.728 56.0907 131.253 55.2465C131.654 54.3551 133.983 54.6537 134.711 54.0865ZM142.239 52.1655C143.264 52.2743 142.029 55.6334 140.561 52.3753C141.114 52.2416 141.674 52.1716 142.239 52.1655ZM147.507 51.5167C149.123 51.1504 154.513 49.4437 155.112 52.2382C155.22 52.1689 155.621 50.5909 155.807 50.7835C156.553 51.555 156.637 52.5774 156.58 53.6486C155.678 51.5605 155.998 53.3949 155.387 53.2517C155.228 53.214 154.984 53.5453 154.579 53.4088C154.049 53.229 153.67 51.9763 153.335 51.5522C152.778 52.4353 152.088 53.5731 150.973 53.4965C150.183 53.4421 148.911 51.1837 149.933 53.6563C149.333 53.436 148.638 52.937 147.969 53.0369C147.221 53.1496 146.831 53.9705 146.13 54.1031C144.574 54.3962 144.339 52.7328 143.329 51.8292C144.722 51.7393 146.132 51.8281 147.507 51.5167ZM157.283 51.4895C157.397 50.9167 158.811 50.6853 159.171 50.8673C160.049 51.3108 159.724 51.8963 159.563 52.8704C158.911 52.5274 158.259 52.185 157.607 51.8419C158.58 53.5836 156.817 53.8362 157.283 51.4895ZM430.969 153.502C430.853 149.329 430.744 145.083 429.792 141.019C429.126 138.176 427.488 133.077 424.392 132.583C419.723 131.838 417.137 142.094 415.828 145.614C415.567 141.469 415.796 137.058 414.387 133.124C413.259 129.972 410.409 126.986 407.955 130.526C405.771 133.677 405.352 138.328 404.777 142.119C404.032 147.031 403.585 151.98 403.041 156.922C400.908 152.342 400.535 147.099 398.849 142.339C397.259 137.847 394.756 133.557 392.344 129.562C390.376 126.299 387.98 123.23 384.895 121.236C382.21 119.5 377.515 117.621 374.956 120.505C372.82 122.911 373.155 126.131 373.266 129.167C373.316 130.519 373.507 131.446 372.436 132.128C371.911 132.462 371.089 132.289 370.511 132.468C369.58 132.757 368.865 133.247 368.078 133.897C362.556 138.458 360.011 146.677 359.223 154.004C358.225 163.289 361.483 171.248 364.286 179.743C364.732 181.097 366.151 183.969 365.955 185.48C365.74 187.136 363.87 187.179 362.607 187.214C358.795 187.318 354.811 187.003 351.018 186.608C341.987 185.669 332.964 180.838 324.878 176.525C323.403 175.738 321.316 175.287 320.111 174.048C318.98 172.883 318.681 171.016 317.704 169.679C315.306 166.4 313.778 163.602 310.247 161.621C306.651 159.604 302.981 157.739 299.473 155.53C295.134 152.797 291.126 149.335 286.968 146.274C279.241 140.588 271.566 134.354 263.374 129.519C259.568 127.272 255.314 126.908 251.362 125.068C247.513 123.277 242.789 123.274 238.772 124.405C236.816 124.957 235.485 126.264 233.685 127.117C231.577 128.116 229.856 127.013 228.001 125.82C225.166 123.997 222.356 121.026 226.393 119.06C227.762 118.392 229.478 118.14 230.675 117.091C231.95 115.973 232.974 113.91 234.011 112.51C236.316 109.397 237.693 105.814 241.067 103.878C244.798 101.737 249.221 101.154 253.199 99.7549C257.51 98.2397 261.73 96.4375 265.961 94.6681C273.582 91.4805 281.505 88.0388 286.982 81.021C291.706 74.9673 293.765 67.1525 293.574 59.2155C293.184 42.9903 285.362 26.5231 274.14 16.3785C260.379 3.93878 242.872 -0.209345 225.489 0.00806054C217.331 0.110408 207.596 1.29679 200.789 6.80457C194.909 11.5618 193.931 19.8825 194.806 27.3934C195.16 30.4416 196.374 34.4645 194.439 37.1503C193.356 38.6533 191.413 39.0252 189.954 39.9621C188.122 41.1393 186.505 42.2677 184.43 42.8899C175.612 45.5362 166.324 44.6149 157.309 44.4684C142.29 44.2242 126.896 48.7427 115.693 60.5021C106.645 69.9975 103.932 87.9034 114.966 97.1602C123.882 104.639 137.865 103.816 148.377 102.512C151.637 102.107 153.879 101.518 153.886 105.95C153.894 110.791 153.173 115.851 154.284 120.603C156.035 128.088 162.507 128.266 168.229 126.654C171.249 125.804 174.168 124.525 177.035 123.186C181.24 121.222 185.095 118.333 189.249 116.373C192.064 115.044 194.172 119.341 196.67 116.362C197.131 115.811 197.217 114.991 197.913 114.709C199.003 114.268 200.833 115.815 201.79 116.305C203.223 117.037 204.667 117.576 205.239 119.341C205.774 120.992 205.54 123.617 205.027 125.246C203.912 128.786 200.911 128.086 198.172 127.849C193.393 127.437 188.647 126.56 183.871 126.192C179.585 125.862 175.572 127.285 171.876 129.634C164.112 134.566 157.76 142.411 151.028 148.863C147.563 152.183 144.214 155.77 140.447 158.661C138.808 159.919 137.034 161.074 135.611 162.637C134.198 164.186 134.042 165.595 133.559 167.658C132.699 171.33 128.425 173.125 125.754 175.063C121.976 177.802 117.971 179.735 113.736 181.416C104.768 184.976 95.7289 187.461 86.3527 189.299C81.7619 190.199 77.2096 190.79 72.5744 191.276C68.5786 191.694 64.33 193.062 60.3391 191.969C61.4884 189.897 63.5253 188.654 65.1117 187.052C67.1565 184.988 68.8957 182.542 70.4436 180.007C73.456 175.072 75.5693 169.776 76.0543 163.79C76.4919 158.403 75.9904 151.958 73.0649 147.407C72.0545 145.835 70.055 145.407 69.151 143.991C68.2514 142.583 68.5946 140.159 68.1021 138.518C66.8489 134.343 63.1292 129.17 59.8556 126.745C56.3043 124.114 51.1092 123.147 47.0069 124.518C39.4068 127.059 34.7381 136.084 31.2602 143.378C29.3607 138.936 32.5419 132.346 28.8307 128.708C25.7005 125.639 23.2161 131.584 22.1691 134.127C17.2547 146.065 16.1384 158.727 14.0795 171.5C13.2404 170.581 13.6704 168.222 13.7494 167.126C13.8962 165.085 13.8822 163.083 13.8862 161.034C13.8962 155.856 14.7623 150.655 14.3652 145.482C14.136 142.491 13.2779 136.186 9.36816 137.18C6.05244 138.022 3.97554 143.203 2.93372 146.371C1.43103 150.94 1.08409 155.463 1.17764 160.289C1.28108 165.622 0.36673 170.868 0.14521 176.193C-0.285344 186.537 0.139968 196.791 2.81095 206.775C7.18467 223.123 17.2413 236.705 30.6628 244.908C38.0577 249.427 46.2612 252.287 54.6954 252.902C59.2662 253.235 63.6786 252.63 68.2104 252.105C72.6823 251.587 77.1777 251.347 81.642 250.739C91.5837 249.384 101.271 245.887 110.308 241.181C115.064 238.703 119.538 235.661 124.216 233.02C126.094 231.961 127.362 230.635 128.965 229.161C130.553 227.701 130.992 227.587 132.799 227.587C132.269 226.012 133.815 225.526 134.504 224.529C134.465 225.013 134.426 225.496 134.388 225.979C134.912 224.714 135.401 224.727 135.853 226.015C136.299 224.572 136.63 223.088 137.169 221.681C139.232 222.841 139.058 225.598 141.816 223.585C144.087 221.929 146.176 219.974 148.491 218.35C153.765 214.651 158.312 209.838 163.601 206.181C163.601 209.743 163.827 213.335 163.399 216.879C162.991 220.248 161.859 223.397 160.959 226.623C159.299 232.574 159.184 238.934 157.344 244.825C156.582 247.265 154.6 249.306 154.031 251.681C153.452 254.104 154.79 256.045 152.547 257.636C150.964 258.758 148.987 259.231 147.235 259.909C144.562 260.945 142.025 262.405 139.424 263.644C127.221 269.454 115.319 275.371 104.014 283.184C93.285 290.596 82.3923 298.253 72.5365 307.057C63.9828 314.698 55.3363 324.578 53.2539 337.043C51.2335 349.133 56.617 362.11 67.4263 366.092C73.0464 368.163 79.4004 367.906 85.2533 367.996C91.5513 368.093 98.2253 366.406 104.417 365.185C110.957 363.897 117.384 361.88 123.942 360.728C130.235 359.624 136.006 357.156 142.195 355.635C148.787 354.015 155.549 353.136 162.178 351.679C165.162 351.022 168.085 350.054 171.078 349.447C174.354 348.782 177.666 348.532 180.91 347.652C187.203 345.943 193.227 343.188 199.547 341.598C202.388 340.883 205.187 339.926 208.029 339.258C210.646 338.643 212.685 337.008 215.308 338.351C217.426 339.435 219.117 341.295 221.122 342.59C223.723 344.27 226.465 345.775 229.177 347.221C234.625 350.126 240.276 352.134 245.973 354.315C251.957 356.607 257.833 359.219 264.033 360.733C270.388 362.284 276.872 362.715 283.271 363.943C296.377 366.455 309.372 367.583 322.675 367.674C329.4 367.721 336.123 366.835 342.832 366.94C348.771 367.033 353.934 368.52 359.365 365.012C368.043 359.406 378.108 350.961 377.895 338.696C377.701 327.586 371.704 316.973 366.079 308.211C359.248 297.57 349.509 290.078 339.964 282.738C329.79 274.916 318.363 269.511 307.671 262.683C302.203 259.191 297.16 255.434 291.222 252.953C288.388 251.769 285.623 250.396 282.822 249.12C280.567 248.095 277.313 247.527 275.384 245.825C274.18 244.763 274.065 243.154 273.747 241.575C273.043 238.08 271.937 234.766 270.864 231.395C268.795 224.887 267.419 218.259 266.529 211.433C265.681 204.926 263.798 198.16 264.773 191.546C271.186 198.44 277.776 205.066 284.338 211.776C286.796 214.291 289.209 216.859 291.681 219.358C293.537 221.234 295.858 224.022 298.444 224.578C301.748 225.29 300.541 221.229 302.809 220.6C304.195 220.216 308.377 224.13 309.473 224.903C316.42 229.804 324.112 232.909 331.753 236.246C339.766 239.744 348.006 242.851 356.628 243.731C364.591 244.546 372.734 243.501 380.42 241.089C395.725 236.288 406.987 224.896 415.252 210.129C424.67 193.301 431.523 173.589 430.969 153.502Z" fill="black"/>
<path fill-rule="evenodd" clip-rule="evenodd" d="M197.057 116.818C197.054 116.823 197.03 116.879 197.03 116.879C197.06 116.857 197.069 116.837 197.057 116.818Z" fill="black"/>
<path fill-rule="evenodd" clip-rule="evenodd" d="M197.795 117.036C197.737 116.5 197.614 115.975 197.424 115.461C196.917 116.354 196.464 116.736 197.13 117.681C197.351 117.466 197.573 117.251 197.795 117.036Z" fill="black"/>
<path fill-rule="evenodd" clip-rule="evenodd" d="M233.087 244.605C233.654 243.935 232.663 243.682 232.286 243.673C232.324 244.392 232.003 246.115 232.888 246.448C232.676 245.798 232.742 245.183 233.087 244.605Z" fill="black"/>
<path fill-rule="evenodd" clip-rule="evenodd" d="M218.137 104.384C217.163 106.475 219.315 107.123 220.56 106.113C221.497 105.354 222.052 103.419 222.206 102.177C222.704 98.1598 220.174 94.3356 218.912 90.7707C218.586 89.8493 218.14 86.689 217.09 86.6024C215.884 86.5025 215.795 89.413 215.779 90.164C215.733 92.4285 216.272 94.7352 216.905 96.8727C217.586 99.1771 219.275 101.943 218.137 104.384Z" fill="black"/>
<path fill-rule="evenodd" clip-rule="evenodd" d="M222.77 96.0018C226.513 99.7061 229.508 93.5364 229.246 89.8871C229.182 88.9829 228.632 85.6488 227.089 86.8621C226.313 87.4716 226.974 89.4525 226.605 90.3222C224.814 94.5382 223.09 87.9983 221.884 87.4849C220.417 86.8594 220.27 89.0012 220.272 90.1463C220.275 92.4191 221.249 94.4966 222.77 96.0018Z" fill="black"/>
<path fill-rule="evenodd" clip-rule="evenodd" d="M209.18 96.5774C210.061 95.0344 211.146 92.9647 211.265 91.1159C211.451 88.2425 209.945 88.4822 208.704 90.487C207.829 91.9034 207.171 94.3056 205.237 93.7084C202.85 92.9724 203.579 89.4047 202.243 87.7096C198.868 92.7471 205.255 103.443 209.18 96.5774Z" fill="black"/>
<path fill-rule="evenodd" clip-rule="evenodd" d="M214.238 111.993C215.634 112.329 219.274 112.205 218.012 109.83C216.422 106.838 211.134 111.247 214.238 111.993Z" fill="black"/>
<path fill-rule="evenodd" clip-rule="evenodd" d="M263.143 22.7711C263.398 21.9255 263.047 21.7719 262.438 21.106C261.861 21.6978 262.6 22.3204 263.143 22.7711Z" fill="black"/>
<path fill-rule="evenodd" clip-rule="evenodd" d="M289.181 175.931C290.102 176.094 290.398 175.553 290.069 174.307C288.616 174.203 288.321 174.744 289.181 175.931Z" fill="black"/>
<path fill-rule="evenodd" clip-rule="evenodd" d="M238.89 45.2776C239.906 45.7938 239.517 46.8528 239.5 47.7475C240.023 47.1159 241.08 45.9603 240.65 45.0528C239.987 43.6536 238.254 44.9546 238.89 45.2776Z" fill="black"/>
<path fill-rule="evenodd" clip-rule="evenodd" d="M204.288 27.6637C204.133 27.3279 203.979 26.9921 203.824 26.6563C203.193 27.2191 202.219 28.7066 203.221 29.4315C203.632 28.877 203.988 28.2881 204.288 27.6637Z" fill="black"/>
<path fill-rule="evenodd" clip-rule="evenodd" d="M216.477 37.5372C217.741 38.6383 217.134 35.2577 217.096 34.9818C216.909 35.3781 215.838 36.9805 216.477 37.5372Z" fill="black"/>
<path fill-rule="evenodd" clip-rule="evenodd" d="M215.776 35.8205C215.68 35.5413 215.582 35.2615 215.486 34.9818C214.974 35.5091 214.346 36.5853 215.192 37.2019C215.425 36.7701 215.619 36.3094 215.776 35.8205Z" fill="black"/>
<path fill-rule="evenodd" clip-rule="evenodd" d="M223.803 47.4295C223.907 47.5349 224.01 47.6409 224.113 47.7475C224.53 46.8128 224.056 46.1113 223.269 46.0824C223.324 46.6069 223.503 47.0559 223.803 47.4295Z" fill="black"/>
<path fill-rule="evenodd" clip-rule="evenodd" d="M189.936 152.556C190.437 152.177 190.892 151.744 191.302 151.258C189.818 150.25 190.707 152.435 188.921 151.094C188.536 151.685 189.164 153.008 189.936 152.556Z" fill="black"/>
<path fill-rule="evenodd" clip-rule="evenodd" d="M252.289 244.228C252.854 243.266 252.956 243.293 252.185 242.563C251.542 243.753 251.609 243.447 252.289 244.228Z" fill="black"/>
<path fill-rule="evenodd" clip-rule="evenodd" d="M134.361 91.0826C134.668 91.4383 134.975 91.7947 135.282 92.1499C135.426 91.6842 136.208 90.3677 135.676 89.9298C135.238 90.3139 134.799 90.6979 134.361 91.0826Z" fill="black"/>
<path fill-rule="evenodd" clip-rule="evenodd" d="M145.286 94.6043C144.796 94.5132 143.623 94.1158 143.351 94.6226C144.069 95.2758 145.688 94.6792 145.286 94.6043Z" fill="black"/>
</svg>
